<?xml version="1.0" standalone="no"?>
<!DOCTYPE svg PUBLIC "-//W3C//DTD SVG 20010904//EN"
 "http://www.w3.org/TR/2001/REC-SVG-20010904/DTD/svg10.dtd">
<svg version="1.0" xmlns="http://www.w3.org/2000/svg"
 width="462.000000pt" height="462.000000pt" viewBox="0 0 462.000000 462.000000"
 preserveAspectRatio="xMidYMid meet">

<g transform="translate(0.000000,462.000000) scale(0.100000,-0.100000)"
fill="#000000" stroke="none">
<path d="M2030 4596 c-327 -48 -595 -136 -853 -282 -721 -408 -1169 -1173
-1170 -1999 -1 -164 12 -286 48 -470 175 -878 864 -1581 1750 -1784 321 -74
691 -73 1015 0 805 184 1454 785 1693 1569 79 259 101 412 101 685 -1 180 -4
232 -27 360 -56 325 -159 597 -328 865 -314 500 -826 869 -1399 1006 -187 45
-275 55 -505 59 -162 3 -258 0 -325 -9z m480 -11 c231 -20 334 -42 555 -117
748 -255 1328 -913 1485 -1688 113 -554 27 -1114 -244 -1594 -218 -384 -538
-695 -926 -899 -226 -119 -438 -190 -710 -238 -104 -19 -163 -22 -355 -22
-240 -1 -347 12 -560 63 -404 98 -798 327 -1093 635 -363 379 -575 838 -627
1353 -18 182 -19 267 0 454 28 295 98 535 234 807 178 358 450 661 801 893
148 97 383 208 545 256 230 68 290 80 485 97 196 17 220 17 410 0z"/>
<path d="M2060 4511 c-44 -6 -45 -7 -48 -46 -1 -22 3 -85 10 -140 11 -83 16
-100 32 -103 16 -4 18 2 15 55 l-4 58 40 5 c35 4 40 8 40 30 0 23 -4 25 -45
25 -43 0 -45 1 -48 33 -3 29 -1 32 25 32 52 0 73 11 73 36 0 26 -3 27 -90 15z"/>
<path d="M2347 4505 c-10 -7 -21 -32 -24 -54 -7 -53 14 -86 60 -95 40 -8 60
-27 51 -49 -9 -24 -39 -30 -77 -14 -31 13 -35 13 -45 -4 -11 -17 -8 -22 20
-39 44 -26 81 -25 115 4 22 19 28 33 28 64 0 44 -26 82 -55 82 -10 0 -28 8
-40 18 -41 34 4 73 54 47 23 -12 27 -12 37 6 12 23 12 22 -18 38 -29 15 -84
13 -106 -4z"/>
<path d="M2581 4477 c-39 -43 -54 -199 -22 -238 27 -33 86 -32 116 3 31 36 53
165 35 208 -23 55 -89 68 -129 27z m88 -48 c9 -26 -5 -127 -21 -146 -14 -17
-43 -16 -58 2 -14 17 1 127 21 151 17 21 49 17 58 -7z"/>
<path d="M1820 4473 c-35 -13 -50 -37 -50 -79 0 -158 82 -253 155 -179 29 28
31 61 11 146 -23 95 -61 132 -116 112z m69 -95 c20 -65 23 -102 8 -123 -13
-16 -19 -17 -40 -8 -40 19 -64 153 -30 172 25 13 50 -3 62 -41z"/>
<path d="M2796 4370 c-38 -142 -34 -178 24 -199 38 -13 73 -1 94 31 19 30 68
206 61 218 -17 27 -34 4 -55 -71 -33 -125 -48 -147 -85 -133 -26 11 -27 43 -1
133 31 107 31 107 7 114 -16 4 -22 -8 -45 -93z"/>
<path d="M1560 4333 l-1 -68 -44 48 c-29 31 -48 45 -59 41 -9 -3 -16 -9 -16
-13 1 -3 27 -35 60 -71 33 -36 67 -85 76 -110 21 -56 25 -61 44 -50 13 8 13
15 -3 58 -11 34 -17 80 -17 141 0 84 -1 91 -20 91 -18 0 -20 -7 -20 -67z"/>
<path d="M3037 4378 c-4 -13 -3 -24 2 -26 4 -1 16 -8 25 -15 16 -12 14 -21
-23 -117 -39 -100 -40 -119 -9 -120 3 0 20 35 37 79 52 135 50 132 86 125 27
-5 33 -2 38 15 5 20 1 22 -139 78 -6 2 -14 -6 -17 -19z"/>
<path d="M1313 4283 c-66 -31 -72 -36 -62 -54 7 -15 16 -18 32 -13 12 3 26 7
30 8 4 0 31 -43 59 -96 48 -90 68 -112 82 -90 3 5 -15 46 -38 93 -54 104 -62
129 -43 129 25 0 38 24 24 42 -11 14 -20 12 -84 -19z"/>
<path d="M3201 4191 c-33 -65 -61 -124 -61 -130 0 -6 8 -11 18 -11 12 0 25 14
37 40 23 52 28 54 65 35 36 -18 36 -24 10 -76 -21 -40 -20 -59 4 -59 6 0 40
55 74 122 48 92 60 123 50 130 -20 12 -21 11 -50 -42 l-28 -50 -35 17 c-19 9
-35 20 -35 24 0 5 11 28 24 52 19 33 22 47 13 56 -6 6 -14 11 -18 11 -3 0 -34
-54 -68 -119z"/>
<path d="M1165 4200 c-7 -12 1 -27 73 -147 53 -88 73 -106 87 -83 8 13 -126
239 -142 240 -6 0 -15 -4 -18 -10z"/>
<path d="M1023 4110 c-18 -10 -35 -31 -39 -45 -9 -35 13 -83 47 -101 25 -12
34 -12 70 0 23 8 47 12 54 9 40 -15 13 -69 -40 -79 -26 -4 -32 -10 -28 -22 10
-26 23 -31 57 -21 37 10 76 52 76 80 0 32 -26 74 -54 87 -21 9 -35 9 -67 -2
-45 -16 -64 -13 -73 10 -7 19 28 54 55 54 15 0 20 5 17 23 -4 29 -35 33 -75 7z"/>
<path d="M3498 4027 c-94 -128 -94 -127 -77 -138 10 -6 24 3 50 33 l36 41 38
-23 c30 -19 39 -20 46 -9 13 21 11 26 -23 52 -31 25 -31 26 -15 51 22 33 25
32 72 -3 39 -29 40 -29 53 -9 15 21 20 16 -64 77 l-41 30 -75 -102z"/>
<path d="M2317 4063 c-22 -25 -22 -63 3 -168 25 -108 64 -193 125 -275 74
-101 113 -195 151 -371 44 -208 55 -378 29 -487 -29 -122 -69 -177 -217 -296
-200 -160 -250 -240 -251 -396 0 -114 27 -199 104 -332 63 -108 51 -127 -81
-114 -219 20 -502 181 -644 365 -59 76 -101 154 -131 239 -87 249 -40 480 149
727 53 68 211 228 291 293 77 63 256 247 290 298 51 76 74 145 85 251 6 52 13
118 16 146 5 44 2 57 -18 87 -24 35 -24 35 -99 34 -264 -6 -666 -168 -918
-371 -679 -546 -879 -1474 -484 -2245 175 -341 476 -632 825 -798 201 -95 223
-97 262 -30 16 27 21 67 30 266 8 163 15 237 24 246 9 9 56 15 140 18 70 3
132 8 139 13 6 4 17 23 23 43 10 31 10 39 -4 53 -15 14 -48 16 -271 16 l-254
0 -35 34 c-44 42 -60 89 -53 150 4 36 12 51 37 73 43 35 94 39 493 35 286 -2
320 -1 333 14 19 21 13 44 -42 176 -114 275 -99 396 68 545 139 123 263 250
292 300 76 131 94 363 50 643 l-7 40 53 -50 c177 -170 341 -433 406 -650 28
-93 25 -295 -5 -400 -60 -207 -170 -365 -296 -424 -23 -11 -95 -29 -161 -41
-191 -34 -274 -67 -274 -111 0 -31 61 -41 266 -44 145 -2 199 -6 211 -16 30
-25 53 -92 53 -156 0 -51 -4 -67 -24 -89 -21 -26 -29 -28 -107 -29 -204 -4
-199 0 -199 -157 0 -219 27 -431 61 -487 22 -36 74 -71 107 -71 32 0 192 64
292 117 360 191 634 478 809 847 43 90 107 286 133 406 19 91 22 136 22 335 1
236 -6 303 -46 455 -84 321 -229 578 -462 818 -309 318 -720 507 -1166 537
-96 6 -107 5 -123 -12z"/>
<path d="M3675 3903 c-122 -132 -118 -118 -55 -174 52 -46 55 -47 73 -31 18
16 18 18 -24 54 l-42 36 78 87 c68 74 76 88 64 100 -12 12 -25 3 -94 -72z"/>
<path d="M800 3930 l-44 -39 24 -28 c14 -15 49 -53 79 -85 29 -31 60 -66 67
-77 15 -20 44 -19 44 3 -1 6 -14 27 -30 46 -30 34 -39 60 -21 60 5 0 33 -11
62 -25 50 -23 54 -23 72 -7 18 16 18 17 -20 34 -21 9 -46 19 -55 22 -13 3 -18
14 -18 36 0 39 -56 100 -91 100 -13 -1 -44 -18 -69 -40z m98 -22 c19 -19 14
-44 -12 -61 -22 -15 -25 -15 -40 2 -21 23 -20 41 2 57 21 17 35 17 50 2z"/>
<path d="M643 3769 c-24 -27 -43 -53 -43 -58 0 -7 148 -138 192 -169 16 -12
23 -8 63 35 47 52 52 64 32 82 -10 8 -22 1 -52 -29 l-39 -40 -23 22 -22 21 24
29 c29 34 30 41 11 58 -12 9 -20 5 -45 -22 l-29 -33 -26 24 -26 24 36 39 c28
32 33 42 23 54 -18 22 -31 16 -76 -37z"/>
<path d="M3875 3784 c-41 -21 -111 -91 -126 -126 -25 -61 35 -121 98 -97 41
15 129 94 143 129 21 52 -17 110 -73 110 -7 0 -25 -7 -42 -16z m65 -49 c19
-22 3 -51 -52 -95 -54 -43 -67 -47 -86 -28 -22 22 -13 45 38 92 51 48 79 57
100 31z"/>
<path d="M533 3629 c-8 -8 4 -30 48 -82 32 -39 57 -72 55 -74 -2 -3 -39 10
-82 27 -77 30 -104 33 -104 8 0 -11 235 -103 264 -103 27 0 4 41 -74 134 -47
55 -87 101 -90 101 -4 0 -11 -5 -17 -11z"/>
<path d="M3976 3551 c-60 -42 -111 -82 -114 -89 -8 -25 29 -24 62 2 62 47 78
29 36 -38 -33 -52 -36 -68 -16 -85 11 -9 19 -2 39 36 23 45 28 48 70 53 48 6
91 36 103 72 4 13 -6 38 -30 74 -20 30 -37 54 -39 53 -1 0 -51 -35 -111 -78z
m119 -18 c17 -26 17 -27 -5 -45 -23 -19 -24 -19 -49 6 -24 25 -24 26 -6 46 24
27 39 25 60 -7z"/>
<path d="M2304 3535 c-88 -247 -163 -336 -443 -525 -216 -146 -290 -248 -327
-450 -36 -201 10 -366 143 -510 107 -116 293 -219 381 -211 20 2 14 35 -20
107 -31 66 -33 75 -33 184 1 126 16 193 62 275 33 60 76 104 180 183 129 98
184 177 219 312 39 153 -13 406 -126 603 -25 43 -30 48 -36 32z m10 -376 c10
-53 7 -161 -8 -214 -33 -123 -97 -206 -251 -325 -83 -64 -106 -88 -127 -132
-32 -66 -48 -165 -48 -299 l0 -103 -44 43 c-117 115 -164 397 -91 547 37 75
123 161 245 243 130 88 181 131 241 207 28 35 57 64 64 64 7 0 15 -14 19 -31z"/>
<path d="M393 3415 c-3 -9 -4 -17 -2 -19 2 -1 57 -33 123 -71 94 -54 120 -65
127 -54 5 8 9 16 9 19 0 8 -226 140 -239 140 -6 0 -14 -7 -18 -15z"/>
<path d="M4108 3352 c-64 -37 -117 -73 -118 -80 -1 -27 32 -22 97 16 37 21 89
51 116 66 41 24 46 29 37 46 -6 11 -12 20 -13 19 -1 0 -55 -30 -119 -67z"/>
<path d="M330 3294 c0 -9 30 -29 78 -52 l77 -37 -102 -3 c-80 -2 -102 -6 -107
-18 -3 -9 -4 -19 -1 -24 9 -15 236 -112 250 -106 28 10 15 22 -65 60 -44 21
-80 41 -80 44 0 3 45 2 99 -1 101 -5 111 -2 111 35 0 11 -222 118 -245 118 -8
0 -15 -7 -15 -16z"/>
<path d="M4165 3239 c-60 -28 -114 -55 -118 -59 -5 -4 0 -28 11 -53 33 -74 72
-83 168 -41 79 34 104 59 104 102 0 39 -27 102 -44 102 -6 -1 -60 -24 -121
-51z m113 -47 c3 -31 1 -34 -61 -62 -69 -33 -88 -32 -105 5 -13 28 -13 28 68
67 72 35 94 33 98 -10z"/>
<path d="M220 3041 c0 -14 17 -23 78 -41 107 -31 134 -46 130 -72 -6 -41 -30
-44 -133 -13 -72 21 -99 25 -107 17 -17 -17 -3 -26 87 -55 115 -36 125 -37
161 -22 26 11 34 21 40 50 10 58 -16 84 -122 122 -105 38 -134 41 -134 14z"/>
<path d="M4120 2994 c0 -17 24 -45 35 -40 32 12 57 -65 30 -94 -19 -21 -13
-56 7 -44 66 39 228 161 228 171 0 10 -34 13 -150 13 -82 0 -150 -3 -150 -6z
m175 -59 c-34 -29 -49 -28 -53 3 -3 20 1 22 40 22 l43 -1 -30 -24z"/>
<path d="M2926 2902 c-2 -4 -4 -68 -3 -142 2 -198 -16 -232 -223 -412 -69 -61
-144 -133 -168 -161 -90 -109 -94 -258 -9 -321 24 -18 43 -21 120 -21 115 0
192 24 261 80 120 97 173 238 183 485 4 125 2 157 -16 232 -21 88 -51 158 -99
230 -24 37 -36 45 -46 30z"/>
<path d="M4333 2525 c-85 -36 -60 -155 32 -155 25 0 44 8 60 25 64 63 -8 165
-92 130z"/>
<path d="M202 2510 c-16 -15 -22 -33 -22 -60 0 -53 27 -80 78 -80 46 0 70 22
79 73 4 29 1 40 -20 61 -32 32 -84 35 -115 6z"/>
<path d="M4227 2056 c-3 -8 -9 -41 -13 -74 l-6 -59 124 -21 c68 -12 131 -22
140 -22 11 0 17 14 22 53 4 28 10 62 13 75 4 18 1 22 -20 22 -21 0 -27 -6 -32
-32 -13 -66 -15 -69 -43 -66 -25 3 -27 6 -25 51 3 43 1 47 -21 47 -20 0 -24
-6 -30 -41 -6 -38 -8 -40 -39 -37 -34 3 -36 10 -26 83 3 25 0 31 -17 33 -12 2
-24 -4 -27 -12z"/>
<path d="M121 2038 c-12 -32 -1 -67 26 -85 22 -15 34 -15 140 0 64 9 118 19
121 22 2 2 2 11 -2 20 -6 16 -22 16 -153 -7 -69 -11 -85 -6 -81 25 5 45 -36
66 -51 25z"/>
<path d="M305 1874 c-104 -29 -132 -45 -141 -79 -12 -48 30 -105 79 -105 36 0
217 55 217 66 0 24 -21 26 -88 6 -110 -33 -128 -35 -146 -17 -39 40 -10 65
112 96 69 18 92 28 90 39 -5 22 -24 21 -123 -6z"/>
<path d="M4181 1804 c-47 -60 -13 -111 96 -143 80 -24 111 -26 134 -8 19 15
39 50 39 71 0 27 -51 75 -92 86 -46 13 -46 13 -58 -29 -11 -39 8 -51 47 -30
22 12 27 11 39 -5 10 -14 10 -24 3 -39 -10 -17 -17 -18 -62 -12 -72 9 -101 25
-105 57 -2 19 2 28 17 33 12 3 21 15 21 26 0 30 -53 26 -79 -7z"/>
<path d="M353 1631 c-68 -26 -125 -50 -129 -53 -8 -9 30 -90 50 -107 54 -45
246 33 246 99 0 23 -30 110 -38 110 -4 -1 -62 -22 -129 -49z m111 -37 c9 -34
-11 -56 -69 -79 -56 -21 -86 -17 -102 15 -6 13 -10 26 -8 28 8 8 141 61 156
61 10 1 20 -10 23 -25z"/>
<path d="M4103 1587 c-34 -79 -36 -87 -24 -87 6 0 66 -23 132 -51 67 -27 123
-49 124 -47 10 10 52 137 48 142 -19 18 -42 2 -60 -39 -19 -48 -28 -53 -58
-31 -17 12 -18 18 -7 52 20 66 -16 77 -48 14 -20 -40 -21 -40 -50 -25 l-29 15
19 46 c21 49 19 64 -8 64 -11 0 -25 -19 -39 -53z"/>
<path d="M1840 1508 c0 -8 4 -18 9 -23 5 -6 24 -45 41 -87 18 -43 36 -78 40
-78 4 0 12 17 19 38 10 33 9 44 -13 97 -23 56 -27 60 -60 63 -25 2 -36 -1 -36
-10z"/>
<path d="M1998 1420 l-3 -100 40 0 40 0 0 100 0 100 -37 0 -37 0 -3 -100z"/>
<path d="M2176 1483 c8 -21 27 -66 42 -100 14 -35 29 -63 33 -63 4 0 14 20 22
45 9 25 12 45 8 45 -4 0 -16 25 -26 55 -19 54 -20 55 -57 55 l-38 0 16 -37z"/>
<path d="M2320 1420 l0 -100 38 0 37 0 0 100 0 100 -37 0 -38 0 0 -100z"/>
<path d="M2485 1420 l0 -100 40 0 40 0 0 100 0 100 -40 0 -40 0 0 -100z"/>
<path d="M2660 1420 l0 -100 38 0 37 0 0 100 0 100 -37 0 -38 0 0 -100z"/>
<path d="M485 1420 c-36 -41 -75 -75 -97 -84 -42 -17 -51 -28 -42 -50 5 -13
14 -11 60 13 41 23 73 31 139 36 86 7 91 10 76 33 -6 10 -22 12 -65 7 -31 -4
-56 -5 -56 -1 0 3 16 24 36 46 32 36 41 71 17 70 -4 -1 -35 -32 -68 -70z"/>
<path d="M1683 1434 c-8 -22 10 -49 32 -49 10 0 22 7 28 16 15 24 1 49 -28 49
-15 0 -28 -7 -32 -16z"/>
<path d="M2847 1436 c-14 -35 23 -67 50 -45 8 7 13 22 11 33 -4 26 -52 35 -61
12z"/>
<path d="M3983 1345 c-3 -9 -4 -17 -2 -19 11 -10 231 -126 238 -126 14 0 73
111 67 126 -10 26 -34 14 -57 -26 -13 -22 -27 -40 -32 -40 -5 0 -51 23 -102
50 -51 28 -96 50 -99 50 -4 0 -9 -7 -13 -15z"/>
<path d="M1835 1330 c-3 -5 1 -10 10 -10 9 0 13 5 10 10 -3 6 -8 10 -10 10 -2
0 -7 -4 -10 -10z"/>
<path d="M633 1199 c-23 -11 -62 -40 -87 -63 -36 -33 -46 -49 -46 -75 0 -37
38 -81 71 -81 23 0 119 49 119 60 0 4 -9 19 -21 34 -17 21 -24 24 -40 16 -11
-6 -18 -19 -16 -33 1 -17 -3 -22 -22 -22 -27 0 -47 25 -38 48 3 9 31 33 62 54
64 42 87 38 93 -13 5 -38 17 -50 37 -34 21 17 20 83 -2 103 -31 27 -65 29
-110 6z"/>
<path d="M3876 1173 c-4 -9 -3 -19 1 -23 10 -9 194 -134 210 -143 6 -4 26 14
48 44 47 66 49 72 26 86 -16 10 -22 6 -50 -33 l-31 -45 -95 65 c-51 36 -96 66
-98 66 -3 0 -8 -8 -11 -17z"/>
<path d="M3778 1060 c-23 -14 -32 -65 -18 -100 16 -37 111 -116 151 -125 47
-10 83 20 87 73 3 36 -1 45 -40 82 -76 75 -133 97 -180 70z m116 -69 c17 -14
35 -30 41 -36 35 -32 16 -83 -26 -72 -31 9 -109 84 -109 106 0 47 44 48 94 2z"/>
<path d="M731 970 c-55 -51 -101 -95 -101 -97 0 -2 21 -29 47 -58 38 -45 49
-52 65 -44 25 13 23 18 -16 64 -32 37 -34 41 -19 57 22 24 35 23 63 -7 27 -29
48 -32 57 -9 3 9 -5 27 -22 44 -28 29 -28 30 -10 50 26 28 39 25 74 -17 28
-34 32 -36 47 -21 20 20 11 38 -44 91 l-40 39 -101 -92z"/>
<path d="M890 809 c-47 -54 -86 -105 -88 -113 -8 -36 21 -20 78 44 35 39 64
69 67 67 2 -3 -10 -42 -27 -88 -34 -95 -37 -114 -14 -123 21 -8 30 -1 124 110
67 78 77 94 65 104 -15 12 -41 -11 -116 -103 -30 -38 -30 -14 1 69 35 92 36
105 12 120 -16 10 -29 -1 -102 -87z"/>
<path d="M3624 896 c-52 -37 -36 -99 47 -183 57 -58 90 -71 125 -48 33 21 45
48 38 84 -13 63 -49 60 -49 -4 0 -25 -4 -31 -26 -33 -20 -2 -36 8 -72 47 -26
28 -47 57 -47 64 0 23 28 40 54 33 30 -7 53 16 32 33 -24 20 -79 24 -102 7z"/>
<path d="M1128 702 c-40 -37 -42 -78 -5 -122 30 -36 33 -52 13 -69 -18 -15
-46 -2 -74 34 -13 16 -26 23 -36 19 -25 -10 -19 -33 18 -70 51 -51 110 -44
141 16 20 39 20 39 -16 94 -29 43 -30 49 -17 63 21 20 54 9 71 -23 11 -21 15
-23 31 -11 25 19 13 53 -27 78 -43 26 -61 24 -99 -9z"/>
<path d="M3403 716 c-59 -27 -70 -87 -24 -138 l28 -32 57 14 c50 12 59 12 67
-1 5 -8 9 -17 9 -21 0 -17 -42 -48 -65 -48 -20 0 -25 -5 -25 -25 0 -28 20 -32
64 -15 67 25 87 94 41 144 -26 28 -54 32 -104 15 -27 -10 -35 -9 -49 5 -22 22
-6 48 37 61 24 7 31 14 29 30 -4 25 -24 28 -65 11z"/>
<path d="M1309 568 c-17 -35 -45 -87 -61 -116 -28 -52 -31 -88 -6 -80 7 3 22
22 34 44 26 46 42 52 75 26 l23 -20 -23 -45 c-23 -44 -22 -67 2 -67 10 0 137
235 137 254 0 3 -9 6 -20 6 -14 0 -27 -14 -42 -45 -12 -25 -26 -45 -30 -45
-14 0 -68 30 -68 37 0 3 11 26 26 50 14 24 22 48 19 53 -15 24 -37 6 -66 -52z"/>
<path d="M3173 582 l-51 -27 60 -120 c33 -66 63 -123 66 -127 4 -4 14 -3 22 2
12 8 11 16 -8 55 -37 77 -24 86 47 30 48 -39 50 -39 71 -25 12 9 7 17 -30 50
-41 36 -44 42 -41 83 2 36 -2 49 -27 75 -17 18 -36 32 -44 32 -7 -1 -36 -13
-65 -28z m95 -59 c2 -13 -5 -27 -20 -37 -31 -22 -35 -21 -53 14 -14 27 -14 30
3 39 28 18 67 9 70 -16z"/>
<path d="M2973 498 c-42 -21 -48 -60 -22 -141 27 -84 63 -127 107 -127 46 0
75 29 74 76 0 44 -34 142 -60 174 -21 24 -69 33 -99 18z m69 -55 c21 -26 50
-109 46 -135 -2 -17 -11 -24 -31 -26 -24 -3 -30 2 -47 41 -28 64 -35 104 -20
122 16 20 34 19 52 -2z"/>
<path d="M1594 478 c-60 -67 -154 -199 -149 -208 9 -14 26 -12 46 6 26 23 89
0 89 -33 0 -12 9 -27 20 -33 17 -9 20 -6 24 22 3 18 7 86 9 151 5 125 -1 138
-39 95z m-4 -114 c0 -42 -1 -45 -22 -38 -13 3 -25 8 -27 10 -4 3 41 74 47 74
1 0 2 -21 2 -46z"/>
<path d="M1752 409 c-5 -24 -19 -81 -32 -127 -22 -86 -21 -112 4 -112 10 0 18
14 22 38 12 64 19 72 59 61 40 -11 55 -6 55 21 0 14 -10 21 -35 26 -42 8 -49
17 -40 51 5 23 10 25 43 20 20 -3 43 -6 50 -8 8 -2 18 6 23 18 7 20 4 23 -29
33 -20 5 -53 13 -73 16 -37 6 -37 6 -47 -37z"/>
<path d="M2816 442 c-3 -5 4 -43 15 -86 11 -43 18 -83 16 -89 -1 -5 -28 27
-58 71 -40 60 -60 81 -76 82 -12 0 -24 -4 -27 -8 -3 -5 9 -68 26 -140 27 -113
35 -132 51 -132 16 0 18 5 13 28 -27 118 -33 152 -27 152 4 0 30 -34 59 -75
41 -59 57 -75 77 -75 15 0 25 6 25 14 0 13 -43 203 -56 249 -5 18 -29 23 -38
9z"/>
<path d="M1936 395 c-10 -28 -7 -35 18 -35 14 0 27 -3 29 -7 2 -5 -2 -46 -9
-93 -18 -121 -18 -140 5 -140 15 0 20 14 31 92 16 122 21 132 56 133 22 0 30
5 32 21 3 19 -3 22 -49 28 -28 4 -64 10 -79 12 -20 4 -29 1 -34 -11z"/>
<path d="M2484 365 c-26 -26 -26 -30 -21 -101 11 -127 36 -161 113 -152 22 2
33 12 46 39 15 30 17 47 9 109 -12 91 -33 124 -84 128 -29 3 -42 -3 -63 -23z
m93 -55 c7 -14 13 -51 13 -82 0 -47 -4 -59 -20 -68 -15 -8 -24 -6 -40 10 -16
16 -20 33 -20 88 0 38 3 72 7 76 14 14 48 0 60 -24z"/>
<path d="M2220 240 c0 -133 1 -140 20 -140 18 0 20 7 20 55 l0 55 40 0 40 0 0
-60 c0 -52 3 -60 19 -60 16 0 19 11 24 83 11 140 9 197 -8 204 -22 8 -24 4
-27 -57 l-3 -55 -42 -3 -43 -3 0 60 c0 54 -2 61 -20 61 -19 0 -20 -7 -20 -140z"/>
</g>
</svg>
